<svg id="visual" viewBox="0 0 900 600" width="900" height="600" xmlns="http://www.w3.org/2000/svg" xmlns:xlink="http://www.w3.org/1999/xlink" version="1.1"><g stroke-width="1" stroke-linejoin="bevel"><path d="M503.3 354L503.3 243L391.7 350Z" fill="#b14b38" stroke="#b14b38"></path><path d="M503.3 243L388.7 248L391.7 350Z" fill="#722e34" stroke="#722e34"></path><path d="M503.3 243L503.3 116L388.7 248Z" fill="#7d3236" stroke="#7d3236"></path><path d="M383.7 487L512.3 482L503.3 354Z" fill="#923b38" stroke="#923b38"></path><path d="M503.3 354L634.9 241L503.3 243Z" fill="#923b38" stroke="#923b38"></path><path d="M503.3 243L634.9 241L503.3 116Z" fill="#b14b38" stroke="#b14b38"></path><path d="M646.9 356L634.9 241L503.3 354Z" fill="#923b38" stroke="#923b38"></path><path d="M503.3 116L386.7 109L388.7 248Z" fill="#482029" stroke="#482029"></path><path d="M262.1 489L383.7 487L391.7 350Z" fill="#883637" stroke="#883637"></path><path d="M391.7 350L383.7 487L503.3 354Z" fill="#b14b38" stroke="#b14b38"></path><path d="M249.1 351L391.7 350L388.7 248Z" fill="#7d3236" stroke="#7d3236"></path><path d="M248.1 123L254.1 244L388.7 248Z" fill="#52232c" stroke="#52232c"></path><path d="M512.3 482L646.9 356L503.3 354Z" fill="#5d272f" stroke="#5d272f"></path><path d="M254.1 244L249.1 351L388.7 248Z" fill="#9d4039" stroke="#9d4039"></path><path d="M634.9 241L641.9 114L503.3 116Z" fill="#b14b38" stroke="#b14b38"></path><path d="M503.3 116L392.7 0L386.7 109Z" fill="#682a32" stroke="#682a32"></path><path d="M763.4 116L641.9 114L634.9 241Z" fill="#b14b38" stroke="#b14b38"></path><path d="M386.7 109L248.1 123L388.7 248Z" fill="#b14b38" stroke="#b14b38"></path><path d="M117.6 248L136.6 364L249.1 351Z" fill="#7d3236" stroke="#7d3236"></path><path d="M249.1 351L262.1 489L391.7 350Z" fill="#923b38" stroke="#923b38"></path><path d="M637.9 600L650.9 479L512.3 482Z" fill="#a74539" stroke="#a74539"></path><path d="M512.3 482L650.9 479L646.9 356Z" fill="#682a32" stroke="#682a32"></path><path d="M646.9 356L767.4 245L634.9 241Z" fill="#722e34" stroke="#722e34"></path><path d="M515.3 0L392.7 0L503.3 116Z" fill="#b14b38" stroke="#b14b38"></path><path d="M386.7 109L248.1 0L248.1 123Z" fill="#5d272f" stroke="#5d272f"></path><path d="M641.9 114L515.3 0L503.3 116Z" fill="#a74539" stroke="#a74539"></path><path d="M383.7 487L511.3 600L512.3 482Z" fill="#923b38" stroke="#923b38"></path><path d="M379.7 600L511.3 600L383.7 487Z" fill="#923b38" stroke="#923b38"></path><path d="M262.1 489L379.7 600L383.7 487Z" fill="#b14b38" stroke="#b14b38"></path><path d="M249.1 351L136.6 364L262.1 489Z" fill="#482029" stroke="#482029"></path><path d="M117.6 248L249.1 351L254.1 244Z" fill="#a74539" stroke="#a74539"></path><path d="M781.4 355L767.4 245L646.9 356Z" fill="#b14b38" stroke="#b14b38"></path><path d="M127.6 128L117.6 248L254.1 244Z" fill="#682a32" stroke="#682a32"></path><path d="M768.4 471L781.4 355L646.9 356Z" fill="#52232c" stroke="#52232c"></path><path d="M767.4 0L631.9 0L641.9 114Z" fill="#5d272f" stroke="#5d272f"></path><path d="M641.9 114L631.9 0L515.3 0Z" fill="#482029" stroke="#482029"></path><path d="M511.3 600L637.9 600L512.3 482Z" fill="#52232c" stroke="#52232c"></path><path d="M650.9 479L768.4 471L646.9 356Z" fill="#a74539" stroke="#a74539"></path><path d="M262.1 489L258.1 600L379.7 600Z" fill="#923b38" stroke="#923b38"></path><path d="M137.6 600L258.1 600L262.1 489Z" fill="#482029" stroke="#482029"></path><path d="M392.7 0L248.1 0L386.7 109Z" fill="#b14b38" stroke="#b14b38"></path><path d="M248.1 123L127.6 128L254.1 244Z" fill="#b14b38" stroke="#b14b38"></path><path d="M770.4 600L768.4 471L650.9 479Z" fill="#9d4039" stroke="#9d4039"></path><path d="M767.4 245L763.4 116L634.9 241Z" fill="#5d272f" stroke="#5d272f"></path><path d="M900 118L763.4 116L767.4 245Z" fill="#482029" stroke="#482029"></path><path d="M122.6 0L127.6 128L248.1 123Z" fill="#7d3236" stroke="#7d3236"></path><path d="M0 363L120.6 476L136.6 364Z" fill="#a74539" stroke="#a74539"></path><path d="M136.6 364L120.6 476L262.1 489Z" fill="#923b38" stroke="#923b38"></path><path d="M120.6 476L137.6 600L262.1 489Z" fill="#7d3236" stroke="#7d3236"></path><path d="M900 118L767.4 0L763.4 116Z" fill="#a74539" stroke="#a74539"></path><path d="M763.4 116L767.4 0L641.9 114Z" fill="#7d3236" stroke="#7d3236"></path><path d="M637.9 600L770.4 600L650.9 479Z" fill="#52232c" stroke="#52232c"></path><path d="M900 354L900 247L781.4 355Z" fill="#b14b38" stroke="#b14b38"></path><path d="M0 129L0 243L117.6 248Z" fill="#682a32" stroke="#682a32"></path><path d="M248.1 0L122.6 0L248.1 123Z" fill="#682a32" stroke="#682a32"></path><path d="M0 129L117.6 248L127.6 128Z" fill="#5d272f" stroke="#5d272f"></path><path d="M117.6 248L0 363L136.6 364Z" fill="#5d272f" stroke="#5d272f"></path><path d="M120.6 476L0 600L137.6 600Z" fill="#482029" stroke="#482029"></path><path d="M900 354L781.4 355L900 481Z" fill="#a74539" stroke="#a74539"></path><path d="M781.4 355L900 247L767.4 245Z" fill="#883637" stroke="#883637"></path><path d="M900 481L781.4 355L768.4 471Z" fill="#883637" stroke="#883637"></path><path d="M0 243L0 363L117.6 248Z" fill="#7d3236" stroke="#7d3236"></path><path d="M122.6 0L0 129L127.6 128Z" fill="#722e34" stroke="#722e34"></path><path d="M0 363L0 473L120.6 476Z" fill="#5d272f" stroke="#5d272f"></path><path d="M900 247L900 118L767.4 245Z" fill="#883637" stroke="#883637"></path><path d="M770.4 600L900 481L768.4 471Z" fill="#5d272f" stroke="#5d272f"></path><path d="M122.6 0L0 0L0 129Z" fill="#883637" stroke="#883637"></path><path d="M900 118L900 0L767.4 0Z" fill="#682a32" stroke="#682a32"></path><path d="M0 473L0 600L120.6 476Z" fill="#7d3236" stroke="#7d3236"></path><path d="M770.4 600L900 600L900 481Z" fill="#682a32" stroke="#682a32"></path></g></svg>